<svg width="100" height="100" viewBox="0 0 100 100" fill="none" xmlns="http://www.w3.org/2000/svg">
<rect width="100" height="100" fill="#1E1E1E"/>
<g id="siddharth MVP">
<path d="M-3804 -1779C-3804 -1780.1 -3803.1 -1781 -3802 -1781H21672C21673.1 -1781 21674 -1780.1 21674 -1779V2271C21674 2272.1 21673.1 2273 21672 2273H-3802C-3803.1 2273 -3804 2272.1 -3804 2271V-1779Z" fill="#444444"/>
<path d="M-3802 -1781V-1780H21672V-1781V-1782H-3802V-1781ZM21674 -1779H21673V2271H21674H21675V-1779H21674ZM21672 2273V2272H-3802V2273V2274H21672V2273ZM-3804 2271H-3803V-1779H-3804H-3805V2271H-3804ZM-3802 2273V2272C-3802.55 2272 -3803 2271.55 -3803 2271H-3804H-3805C-3805 2272.66 -3803.66 2274 -3802 2274V2273ZM21674 2271H21673C21673 2271.55 21672.6 2272 21672 2272V2273V2274C21673.7 2274 21675 2272.66 21675 2271H21674ZM21672 -1781V-1780C21672.6 -1780 21673 -1779.55 21673 -1779H21674H21675C21675 -1780.66 21673.7 -1782 21672 -1782V-1781ZM-3802 -1781V-1782C-3803.66 -1782 -3805 -1780.66 -3805 -1779H-3804H-3803C-3803 -1779.55 -3802.55 -1780 -3802 -1780V-1781Z" fill="white" fill-opacity="0.1"/>
<g id="Desktop - 38">
<rect width="1440" height="1024" transform="translate(-370 -422)" fill="white"/>
<g id="Frame 269">
<rect x="-66" y="-402" width="1116" height="984" rx="20" fill="#EBEBEB"/>
<g id="Frame 347">
<g id="Frame 433">
<g id="Frame 346">
<g id="Frame 320">
<g id="Frame 316">
<path id="Subtract" d="M117.724 -62C128.769 -62 137.724 -53.0457 137.724 -42V-12C137.724 -0.954304 146.678 8 157.724 8H188C199.046 8 208 16.9543 208 28V171C208 182.046 199.046 191 188 191H-26C-37.0457 191 -46 182.046 -46 171V-42C-46 -53.0457 -37.0457 -62 -26 -62H117.724Z" fill="white"/>
<g id="Frame 400">
<g id="Group 41">
<path id="Vector" d="M99.1953 29.286L74.6721 43.5365L50.1489 29.286C50.6524 28.4103 51.3704 27.6786 52.2347 27.1604L71.6924 15.8738C73.5398 14.8259 75.8044 14.8259 77.6518 15.8738L97.1095 27.1604C97.9736 27.6783 98.6917 28.4118 99.1953 29.286Z" fill="#0CC946" fill-opacity="0.24"/>
<path id="Vector_2" d="M74.672 43.5376V71.9787C73.7325 71.9773 72.8055 71.7624 71.9604 71.35L52.324 59.9436C51.4195 59.4179 50.6683 58.6629 50.1454 57.754C49.6225 56.8451 49.3462 55.8142 49.3442 54.7644V32.3108C49.3492 31.2502 49.6263 30.2087 50.1488 29.2871L74.672 43.5376Z" fill="#0CC946" fill-opacity="0.5"/>
<path id="Vector_3" d="M100 32.3108V54.7644C99.9981 55.8142 99.7218 56.8451 99.1989 57.754C98.676 58.6629 97.9248 59.4179 97.0203 59.9436L77.2945 71.38C76.4751 71.7692 75.5782 71.9727 74.6724 71.9787V43.5376L99.1955 29.2871C99.717 30.2092 99.9941 31.251 100 32.3108Z" fill="#0CC946"/>
</g>
<g id="Group 42">
<path id="Vector_4" d="M49.8508 57.3094L25.3276 71.5599L0.804443 57.3094C1.30787 56.4337 2.0259 55.702 2.89025 55.1838L22.3479 43.8972C24.1953 42.8494 26.4599 42.8494 28.3074 43.8972L47.765 55.1838C48.6291 55.7018 49.3472 56.4352 49.8508 57.3094Z" fill="#0CC946" fill-opacity="0.24"/>
<path id="Vector_5" d="M25.3277 71.5591V100C24.3882 99.9988 23.4612 99.7839 22.6162 99.3715L2.97973 87.9651C2.07528 87.4394 1.32404 86.6844 0.801136 85.7755C0.278227 84.8666 0.001974 83.8357 0 82.7858V60.3323C0.00491864 59.2717 0.282018 58.2302 0.804527 57.3086L25.3277 71.5591Z" fill="#0CC946" fill-opacity="0.5"/>
<path id="Vector_6" d="M50.6556 60.3323V82.7858C50.6536 83.8357 50.3774 84.8666 49.8545 85.7755C49.3316 86.6844 48.5803 87.4394 47.6759 87.9651L27.95 99.4014C27.1306 99.7906 26.2337 99.9942 25.3279 100V71.5591L49.8511 57.3086C50.3725 58.2307 50.6496 59.2725 50.6556 60.3323Z" fill="#0CC946"/>
</g>
<g id="Group 43">
<path id="Vector_7" d="M74.1655 14.1981L49.6423 28.4486L25.1191 14.1981C25.6226 13.3224 26.3406 12.5907 27.205 12.0725L46.6626 0.785873C48.51 -0.261958 50.7746 -0.261958 52.6221 0.785873L72.0797 12.0725C72.9438 12.5904 73.6619 13.3239 74.1655 14.1981Z" fill="#0CC946" fill-opacity="0.24"/>
<path id="Vector_8" d="M49.6424 28.4478V56.8889C48.7029 56.8875 47.7759 56.6726 46.9309 56.2602L27.2944 44.8538C26.39 44.3281 25.6387 43.5731 25.1158 42.6641C24.5929 41.7552 24.3167 40.7243 24.3147 39.6745V17.221C24.3196 16.1604 24.5967 15.1189 25.1192 14.1973L49.6424 28.4478Z" fill="#0CC946" fill-opacity="0.5"/>
<path id="Vector_9" d="M74.9703 17.221V39.6745C74.9683 40.7243 74.6921 41.7552 74.1692 42.6641C73.6462 43.5731 72.895 44.3281 71.9906 44.8538L52.2647 56.2901C51.4453 56.6793 50.5484 56.8829 49.6426 56.8889V28.4478L74.1658 14.1973C74.6872 15.1194 74.9643 16.1612 74.9703 17.221Z" fill="#0CC946"/>
</g>
</g>
</g>
</g>
</g>
</g>
</g>
</g>
</g>
</g>
</svg>
