<svg width="100" height="100" viewBox="0 0 100 100" fill="none" xmlns="http://www.w3.org/2000/svg">
<path d="M99.1953 29.286L74.6721 43.5365L50.1489 29.286C50.6524 28.4103 51.3704 27.6786 52.2347 27.1604L71.6924 15.8738C73.5398 14.8259 75.8044 14.8259 77.6518 15.8738L97.1095 27.1604C97.9736 27.6783 98.6917 28.4118 99.1953 29.286Z" fill="#0CC946" fill-opacity="0.24"/>
<path d="M74.672 43.5376V71.9787C73.7325 71.9773 72.8055 71.7624 71.9604 71.35L52.324 59.9436C51.4195 59.4179 50.6683 58.6629 50.1454 57.754C49.6225 56.8451 49.3462 55.8142 49.3442 54.7644V32.3108C49.3492 31.2502 49.6263 30.2087 50.1488 29.2871L74.672 43.5376Z" fill="#0CC946" fill-opacity="0.5"/>
<path d="M100 32.3108V54.7644C99.9981 55.8142 99.7219 56.8451 99.1989 57.754C98.676 58.6629 97.9248 59.4179 97.0203 59.9436L77.2945 71.38C76.4751 71.7692 75.5782 71.9727 74.6724 71.9787V43.5376L99.1955 29.2871C99.717 30.2092 99.9941 31.251 100 32.3108Z" fill="#0CC946"/>
<path d="M49.8508 57.3094L25.3276 71.5599L0.804443 57.3094C1.30787 56.4337 2.0259 55.702 2.89025 55.1838L22.3479 43.8972C24.1953 42.8494 26.4599 42.8494 28.3074 43.8972L47.765 55.1838C48.6291 55.7018 49.3472 56.4352 49.8508 57.3094Z" fill="#0CC946" fill-opacity="0.24"/>
<path d="M25.3277 71.5591V100C24.3882 99.9988 23.4612 99.7839 22.6162 99.3715L2.97973 87.9651C2.07528 87.4394 1.32404 86.6844 0.801136 85.7755C0.278227 84.8666 0.001974 83.8357 0 82.7858V60.3323C0.00491864 59.2717 0.282018 58.2302 0.804527 57.3086L25.3277 71.5591Z" fill="#0CC946" fill-opacity="0.5"/>
<path d="M50.6556 60.3323V82.7858C50.6536 83.8357 50.3774 84.8666 49.8545 85.7755C49.3316 86.6844 48.5803 87.4394 47.6759 87.9651L27.95 99.4014C27.1306 99.7906 26.2337 99.9942 25.3279 100V71.5591L49.8511 57.3086C50.3725 58.2307 50.6496 59.2725 50.6556 60.3323Z" fill="#0CC946"/>
<path d="M74.1655 14.1981L49.6423 28.4486L25.1191 14.1981C25.6226 13.3224 26.3406 12.5907 27.205 12.0725L46.6626 0.785873C48.51 -0.261958 50.7746 -0.261958 52.6221 0.785873L72.0797 12.0725C72.9438 12.5904 73.6619 13.3239 74.1655 14.1981Z" fill="#0CC946" fill-opacity="0.24"/>
<path d="M49.6424 28.4478V56.8889C48.7029 56.8875 47.7759 56.6726 46.9309 56.2602L27.2944 44.8538C26.39 44.3281 25.6387 43.5731 25.1158 42.6641C24.5929 41.7552 24.3167 40.7243 24.3147 39.6745V17.221C24.3196 16.1604 24.5967 15.1189 25.1192 14.1973L49.6424 28.4478Z" fill="#0CC946" fill-opacity="0.5"/>
<path d="M74.9703 17.221V39.6745C74.9683 40.7243 74.6921 41.7552 74.1692 42.6641C73.6462 43.5731 72.895 44.3281 71.9906 44.8538L52.2647 56.2901C51.4453 56.6793 50.5484 56.8829 49.6426 56.8889V28.4478L74.1658 14.1973C74.6872 15.1194 74.9643 16.1612 74.9703 17.221Z" fill="#0CC946"/>
</svg>
