<svg width="24" height="24" viewBox="0 0 24 24" fill="none" xmlns="http://www.w3.org/2000/svg">
<path d="M20.25 3.9375H3.75C3.4019 3.9375 3.06806 4.07578 2.82192 4.32192C2.57578 4.56806 2.4375 4.9019 2.4375 5.25V18.75C2.4375 19.0981 2.57578 19.4319 2.82192 19.6781C3.06806 19.9242 3.4019 20.0625 3.75 20.0625H5.00531C5.11176 20.0625 5.21601 20.0322 5.30595 19.9753C5.3959 19.9184 5.46784 19.8371 5.51344 19.7409C5.89329 18.9387 6.49309 18.2609 7.24308 17.7862C7.99306 17.3115 8.86241 17.0595 9.75 17.0595C10.6376 17.0595 11.5069 17.3115 12.2569 17.7862C13.0069 18.2609 13.6067 18.9387 13.9866 19.7409C14.0322 19.8371 14.1041 19.9184 14.194 19.9753C14.284 20.0322 14.3882 20.0625 14.4947 20.0625H20.25C20.5981 20.0625 20.9319 19.9242 21.1781 19.6781C21.4242 19.4319 21.5625 19.0981 21.5625 18.75V5.25C21.5625 4.9019 21.4242 4.56806 21.1781 4.32192C20.9319 4.07578 20.5981 3.9375 20.25 3.9375ZM7.3125 13.5C7.3125 13.0179 7.45546 12.5466 7.72329 12.1458C7.99113 11.745 8.37181 11.4325 8.81721 11.248C9.2626 11.0636 9.7527 11.0153 10.2255 11.1093C10.6984 11.2034 11.1327 11.4355 11.4736 11.7764C11.8145 12.1173 12.0466 12.5516 12.1407 13.0245C12.2347 13.4973 12.1864 13.9874 12.002 14.4328C11.8175 14.8782 11.505 15.2589 11.1042 15.5267C10.7034 15.7945 10.2321 15.9375 9.75 15.9375C9.10353 15.9375 8.48355 15.6807 8.02643 15.2236C7.56931 14.7665 7.3125 14.1465 7.3125 13.5ZM20.4375 18.75C20.4375 18.7997 20.4177 18.8474 20.3826 18.8826C20.3474 18.9177 20.2997 18.9375 20.25 18.9375H14.8378C14.1819 17.7602 13.1393 16.8458 11.8866 16.3491C12.485 15.9006 12.927 15.2752 13.1502 14.5614C13.3733 13.8477 13.3662 13.0818 13.1299 12.3724C12.8935 11.6629 12.4399 11.0458 11.8333 10.6085C11.2267 10.1712 10.4978 9.93586 9.75 9.93586C9.00219 9.93586 8.27335 10.1712 7.66673 10.6085C7.06012 11.0458 6.60649 11.6629 6.37013 12.3724C6.13377 13.0818 6.12666 13.8477 6.34981 14.5614C6.57296 15.2752 7.01504 15.9006 7.61344 16.3491C6.36068 16.8458 5.31808 17.7602 4.66219 18.9375H3.75C3.70027 18.9375 3.65258 18.9177 3.61742 18.8826C3.58225 18.8474 3.5625 18.7997 3.5625 18.75V5.25C3.5625 5.20027 3.58225 5.15258 3.61742 5.11742C3.65258 5.08225 3.70027 5.0625 3.75 5.0625H20.25C20.2997 5.0625 20.3474 5.08225 20.3826 5.11742C20.4177 5.15258 20.4375 5.20027 20.4375 5.25V18.75ZM18.5625 7.5V16.5C18.5625 16.6492 18.5032 16.7923 18.3977 16.8977C18.2923 17.0032 18.1492 17.0625 18 17.0625H16.5C16.3508 17.0625 16.2077 17.0032 16.1023 16.8977C15.9968 16.7923 15.9375 16.6492 15.9375 16.5C15.9375 16.3508 15.9968 16.2077 16.1023 16.1023C16.2077 15.9968 16.3508 15.9375 16.5 15.9375H17.4375V8.0625H6.5625V9C6.5625 9.14918 6.50324 9.29226 6.39775 9.39775C6.29226 9.50324 6.14918 9.5625 6 9.5625C5.85082 9.5625 5.70774 9.50324 5.60225 9.39775C5.49676 9.29226 5.4375 9.14918 5.4375 9V7.5C5.4375 7.35082 5.49676 7.20774 5.60225 7.10225C5.70774 6.99676 5.85082 6.9375 6 6.9375H18C18.1492 6.9375 18.2923 6.99676 18.3977 7.10225C18.5032 7.20774 18.5625 7.35082 18.5625 7.5Z" fill="black"/>
</svg>
