<svg width="20" height="20" viewBox="0 0 20 20" fill="none" xmlns="http://www.w3.org/2000/svg">
<path d="M10.991 1.06552C10.6891 0.893305 10.3476 0.802734 10 0.802734C9.65244 0.802734 9.31089 0.893305 9.009 1.06552L0.75 5.77752L9.009 10.4895C9.31089 10.6617 9.65244 10.7523 10 10.7523C10.3476 10.7523 10.6891 10.6617 10.991 10.4895L19.25 5.77752L10.991 1.06552Z" stroke="black" stroke-width="1.5" stroke-linejoin="round"/>
<path d="M0.75 10L8.018 14.147C8.62178 14.4914 9.30489 14.6726 10 14.6726C10.6951 14.6726 11.3782 14.4914 11.982 14.147L19.25 10" stroke="black" stroke-width="1.5" stroke-linecap="round" stroke-linejoin="round"/>
<path d="M0.75 14.2207L8.018 18.3677C8.62178 18.7121 9.30489 18.8933 10 18.8933C10.6951 18.8933 11.3782 18.7121 11.982 18.3677L19.25 14.2207" stroke="black" stroke-width="1.5" stroke-linecap="round" stroke-linejoin="round"/>
</svg>
